<svg width="64" height="64" viewBox="0 0 64 64" fill="none" xmlns="http://www.w3.org/2000/svg">
<circle cx="32.0007" cy="32.1667" r="27.8333" stroke="#FBFAF3" stroke-width="2.66667"/>
<path d="M33.8127 37.5117C33.6301 38.3949 32.9233 39.1343 32.0213 39.1343C31.1194 39.1343 30.3723 38.3994 30.4939 37.5057C30.5926 36.7797 30.7607 36.1032 30.9979 35.4761C31.4044 34.3729 31.898 33.5019 32.4786 32.8631C33.0883 32.2244 33.7415 31.5857 34.4383 30.947C35.1351 30.3082 35.7738 29.7421 36.3545 29.2485C36.9642 28.755 37.4723 28.1308 37.8787 27.3759C38.2852 26.592 38.4884 25.7356 38.4884 24.8065C38.4884 23.3258 37.9368 22.1065 36.8335 21.1484C35.7593 20.1903 34.2932 19.7112 32.4351 19.7112C30.2286 19.7112 28.5301 20.35 27.3398 21.6274C26.4814 22.5276 25.9326 23.6769 25.6932 25.0753C25.5308 26.0236 24.7744 26.8098 23.8123 26.8098C22.8502 26.8098 22.0549 26.0262 22.1772 25.072C22.4698 22.7892 23.3632 20.9006 24.8575 19.4064C26.7156 17.5193 29.2414 16.5757 32.4351 16.5757C35.3674 16.5757 37.6755 17.3305 39.3594 18.8402C41.0723 20.3209 41.9288 22.2371 41.9288 24.5888C41.9288 26.0694 41.6385 27.3614 41.0578 28.4647C40.5062 29.5679 39.8239 30.4679 39.011 31.1647C38.1981 31.8615 37.3852 32.5438 36.5722 33.2115C35.7593 33.8793 35.0625 34.7067 34.4819 35.6939C34.1715 36.2492 33.9485 36.8552 33.8127 37.5117ZM30.5189 47.1473C30.1124 46.7118 29.9092 46.2038 29.9092 45.6231C29.9092 45.0424 30.1124 44.5489 30.5189 44.1424C30.9544 43.736 31.4625 43.5327 32.0431 43.5327C32.6238 43.5327 33.1173 43.736 33.5238 44.1424C33.9593 44.5489 34.177 45.0424 34.177 45.6231C34.177 46.2038 33.9593 46.7118 33.5238 47.1473C33.1173 47.5538 32.6238 47.757 32.0431 47.757C31.4625 47.757 30.9544 47.5538 30.5189 47.1473Z" fill="#FBFAF3"/>
</svg>
