<svg width="102" height="116" viewBox="0 0 102 116" fill="none" xmlns="http://www.w3.org/2000/svg">
<g clip-path="url(#clip0_791_2530)">
<path d="M51.2591 0.958984C23.3173 0.958984 0.583984 23.6923 0.583984 51.6374C0.583984 73.4161 14.3974 92.0321 33.7212 99.1855H33.7245C33.7667 99.8545 33.7894 100.527 33.7894 101.205C33.7894 103.033 33.6336 104.829 33.3251 106.573C33.3316 106.609 33.3446 106.644 33.3576 106.68C34.5947 108.492 36.1176 110.083 37.8679 111.388C37.8711 111.379 37.8776 111.362 37.8841 111.349C37.9133 111.392 37.9426 111.431 37.975 111.47C41.2189 113.853 45.2194 115.259 49.5511 115.259C52.243 115.259 54.8115 114.713 57.143 113.723C58.0132 113.363 58.851 112.934 59.6498 112.453C60.0947 112.187 60.5298 111.901 60.9454 111.603C61.3741 111.294 61.7962 110.966 62.1988 110.622C64.1699 108.947 65.8097 106.888 66.9884 104.56C67.8424 102.894 68.4594 101.088 68.8003 99.1855C88.1241 92.0321 101.938 73.4161 101.938 51.6374C101.938 23.6923 79.2042 0.958984 51.2591 0.958984ZM34.2992 89.4993C34.1012 88.957 33.8739 88.3952 33.6141 87.7913C33.3446 87.1743 33.0653 86.5801 32.7828 86.0281C32.4906 85.4436 32.1756 84.8558 31.8379 84.2843C31.7307 83.6479 31.6431 82.9887 31.5814 82.3198C31.5359 81.8197 31.5034 81.3554 31.4807 80.8975V80.8359C31.4677 80.5858 31.458 80.3488 31.4547 80.1117C31.4515 79.9266 31.4482 79.7383 31.4482 79.5532V79.4688C33.2569 78.985 34.7928 77.7933 35.7118 76.1794L38.2088 85.7228C36.7379 86.7944 35.4195 88.0705 34.2992 89.4993ZM28.5388 74.7961C29.3311 74.0623 30.3864 73.6272 31.5359 73.6272C32.325 73.6272 33.0913 73.8382 33.7635 74.2344C33.2277 75.6924 31.9548 76.7607 30.4254 77.0367C30.1689 77.0854 29.9058 77.1081 29.6363 77.1081C28.8375 77.1081 28.0777 76.897 27.4055 76.5009C27.6491 75.8385 28.042 75.2572 28.5388 74.7961ZM27.0451 72.6465C26.9477 72.4939 26.8567 72.3413 26.7626 72.1887C26.23 71.2989 25.743 70.3768 25.3143 69.4481L33.3413 67.1069L34.5428 71.7113C33.6108 71.2665 32.5847 71.0294 31.5359 71.0294C29.8376 71.0294 28.266 71.6269 27.0451 72.6465ZM57.0326 75.2442C54.24 77.1276 51.8599 79.6279 50.1194 82.5114L50.1129 82.5244L50.1064 82.5341L50.0382 82.6478C49.97 82.7647 49.9018 82.8783 49.8336 82.9952C49.7817 83.0861 49.7297 83.1803 49.6778 83.2712L49.6323 83.3556C49.181 84.1739 48.7816 85.0214 48.4341 85.8852C46.4761 85.252 44.4336 84.9338 42.3327 84.9338C41.7872 84.9338 41.2449 84.9565 40.7059 85.002L35.8351 66.3795L50.2006 62.1907L49.4732 59.6968L24.337 67.0257C24.2006 66.6393 24.0739 66.2561 23.957 65.8762L23.8791 65.6229C23.1225 63.0674 22.7264 60.4047 22.7101 57.7063C23.8531 57.8395 25.0124 57.9044 26.1911 57.9044C38.6147 57.9044 49.3401 50.6308 54.3342 40.1067C55.5909 40.8893 56.7761 41.7953 57.8704 42.8084C57.1398 44.341 56.552 45.9289 56.1201 47.5427C55.4577 49.9749 55.12 52.5011 55.12 55.0534C55.12 56.1899 55.1882 57.3427 55.3246 58.4792L55.3993 59.1253L55.7727 59.6579C56.0325 60.0313 56.2728 60.4177 56.5001 60.8139C57.7437 62.9927 58.4451 65.4833 58.5295 68.0291C58.536 68.2012 58.5393 68.3668 58.5393 68.5389C58.5393 70.8963 58.0327 73.1498 57.0326 75.2442ZM22.814 55.1086C22.814 55.1086 22.814 55.0826 22.814 55.0729C22.8238 54.9722 22.8303 54.8781 22.84 54.7871C22.8498 54.6865 22.8595 54.5923 22.8692 54.5014V54.4884L22.8725 54.4754C23.0608 52.67 23.4245 50.8906 23.9473 49.1858L24.009 48.9812C24.272 48.1402 24.574 47.3154 24.9149 46.5036C24.9831 46.3413 25.0513 46.1789 25.1228 46.0198C25.1942 45.8542 25.2689 45.6918 25.3436 45.5295C25.4085 45.3899 25.4735 45.2535 25.5384 45.1171C26.1586 43.8345 26.8762 42.6006 27.6848 41.4186C31.6593 38.3533 36.4131 36.6842 41.4527 36.5803C41.6183 36.5771 41.7872 36.5706 41.9495 36.5706C45.5019 36.5706 48.8952 37.3402 52.0482 38.8533C49.9538 43.3506 46.7261 47.2083 42.625 50.1047C37.7997 53.5078 32.1171 55.3067 26.1878 55.3067C25.0578 55.3067 23.9278 55.2385 22.8108 55.1086H22.814ZM69.1023 96.2826C69.1088 96.091 69.112 95.8929 69.112 95.6981C69.112 91.7496 67.9431 88.0738 65.9331 85.002C64.7154 83.1446 63.1925 81.5015 61.4325 80.1539C61.0331 79.8455 60.6207 79.5597 60.1986 79.2837C60.7538 78.5369 61.2572 77.7478 61.7053 76.923C61.9975 76.3905 62.2638 75.8385 62.5073 75.2767C62.7476 74.7344 62.9554 74.1792 63.147 73.6142C63.1632 73.6401 63.1827 73.6629 63.2055 73.6889C63.384 73.1855 63.5367 72.6725 63.6665 72.1465C63.6893 72.0555 63.712 71.9614 63.7315 71.8672C63.7445 71.8217 63.7542 71.7763 63.764 71.7308C63.7737 71.6951 63.7802 71.6626 63.7867 71.6269C63.8062 71.5327 63.8289 71.4386 63.8451 71.3379C63.8744 71.2015 63.8971 71.0652 63.9198 70.9255C63.949 70.7567 63.9783 70.5911 64.001 70.4222C64.0302 70.2209 64.053 70.0196 64.0757 69.8182C64.0984 69.6039 64.1179 69.3831 64.1341 69.1656C64.1601 68.7694 64.1763 68.3733 64.1763 67.9706C64.1763 67.3926 64.1471 66.8276 64.0919 66.2626C64.001 65.3177 63.8289 64.3987 63.5951 63.5058C64.3225 62.6323 65.4168 62.0835 66.6442 62.0835C66.7416 62.0835 66.8423 62.0868 66.9364 62.0933C66.9527 62.0933 66.9689 62.0932 66.9851 62.0965C67.0761 62.1062 67.1637 62.116 67.2514 62.129C67.2644 62.1322 67.2709 62.1322 67.2774 62.1322C67.378 62.1452 67.4722 62.1647 67.5631 62.1874C67.6703 62.2134 67.771 62.2426 67.8749 62.2751C67.8814 62.2783 67.8943 62.2848 67.9008 62.2848C67.969 62.3076 68.0372 62.3335 68.1022 62.3595C68.4983 62.5121 68.8588 62.7264 69.177 62.9927C69.2159 63.0252 69.2484 63.0544 69.2841 63.0836C69.3166 63.1129 69.3491 63.1421 69.3783 63.1681C69.4043 63.1973 69.4367 63.2265 69.4627 63.2525C69.5179 63.3044 69.5731 63.3629 69.6218 63.4181C69.6511 63.4571 69.6868 63.496 69.716 63.5317C69.9336 63.7915 70.1154 64.0773 70.255 64.3792C70.3005 64.4734 70.3427 64.5741 70.3817 64.6747C70.4044 64.7299 70.4239 64.7851 70.4369 64.8436C70.4661 64.9183 70.4888 64.9962 70.5051 65.0741C70.5116 65.0871 70.5148 65.1001 70.518 65.1131C70.5408 65.2105 70.5603 65.3112 70.5797 65.4086V65.4216C70.5992 65.5255 70.609 65.6327 70.6155 65.7398C70.6285 65.8502 70.6317 65.9606 70.6317 66.071C70.6317 66.4347 70.583 66.7854 70.4921 67.1199C69.5991 67.568 68.8717 68.2953 68.4334 69.1915C68.3489 69.3669 68.2775 69.5455 68.2158 69.7306C68.0567 70.1917 67.9723 70.6852 67.9723 71.1983C67.9723 71.773 68.0794 72.3186 68.2743 72.8251C68.1769 73.0199 68.0697 73.2083 67.9431 73.3869C67.9203 73.4291 67.8911 73.4648 67.8586 73.5038C67.8099 73.572 67.7612 73.6369 67.706 73.7018C67.6833 73.7311 67.6606 73.757 67.6378 73.7863C67.5664 73.8674 67.4917 73.9486 67.4138 74.0233C67.2969 74.1467 67.167 74.2604 67.0403 74.3643C66.9754 74.4195 66.9072 74.4714 66.839 74.5169C66.7741 74.5656 66.6994 74.6175 66.628 74.663C66.4851 74.7539 66.3357 74.8416 66.1798 74.913C66.1149 74.9423 66.05 74.9747 65.985 75.0007L65.8259 75.0689C65.7967 75.0786 65.761 75.0916 65.7317 75.1014C65.6538 75.1338 65.5694 75.1598 65.485 75.1825C65.407 75.2085 65.3226 75.2313 65.2382 75.2475C65.0336 75.2994 64.8258 75.3352 64.6082 75.3546C66.628 77.6017 68.9789 79.55 71.5831 81.1281C72.3332 80.4819 73.0508 79.7968 73.736 79.0824C74.9342 77.8387 76.0285 76.4879 77.0091 75.0527C80.3472 70.1657 82.3247 64.2721 82.4027 57.9239C82.4059 57.7908 82.4059 57.6576 82.4059 57.5245C82.4059 47.4583 77.6326 38.5091 70.2258 32.8169C69.3231 32.122 68.3782 31.4758 67.404 30.8816C64.3484 29.0274 60.9552 27.6831 57.3346 26.9687C55.3701 26.5791 53.3373 26.3777 51.2591 26.3777C48.6582 26.3777 46.1319 26.696 43.716 27.2967C41.7222 27.7935 39.8032 28.4819 37.9815 29.3424C33.0751 31.6576 28.8732 35.2165 25.7787 39.6132C23.9051 42.2726 22.4374 45.2372 21.4665 48.4195C20.895 50.2801 20.5021 52.2154 20.291 54.2027C20.252 54.5696 20.2196 54.9333 20.1936 55.3034C20.1449 55.9626 20.1189 56.6315 20.1124 57.3069V57.5245C20.1124 60.5931 20.5573 63.561 21.3885 66.3633C21.6613 67.279 21.9763 68.1752 22.3237 69.0519C22.4731 69.4351 22.6322 69.815 22.7978 70.1917C23.3109 71.3379 23.8921 72.4517 24.535 73.5232C24.7916 73.9486 25.0546 74.3675 25.3306 74.7799C25.0578 75.3059 24.8468 75.8709 24.7104 76.4717L24.6422 76.7704L24.7169 77.0691C24.7558 77.238 24.8078 77.4101 24.8727 77.5919L24.9929 77.9524L25.2916 78.1862C26.3275 79.0142 27.5484 79.5175 28.8505 79.6604C28.8505 79.826 28.8538 79.9981 28.857 80.1637C28.8602 80.4235 28.8732 80.6865 28.883 80.9495C28.9057 81.4918 28.9447 82.0276 28.9934 82.5601C29.0778 83.4466 29.1979 84.3298 29.3636 85.1935C29.3895 85.239 29.4188 85.2877 29.4415 85.3364C29.8084 85.9436 30.1494 86.5671 30.4643 87.2003C30.7371 87.7328 30.9936 88.2751 31.2307 88.8271C31.5294 89.5123 31.8054 90.2136 32.049 90.928C32.575 92.4217 32.9874 93.9739 33.2764 95.565C33.3186 95.802 33.3576 96.0358 33.3933 96.2728C33.4355 96.2891 33.481 96.3086 33.5264 96.3248C33.4972 96.4092 33.468 96.4969 33.442 96.5813C33.4258 96.4774 33.4128 96.3768 33.3933 96.2728C15.7028 89.1681 3.18171 71.838 3.18171 51.6374C3.18171 25.1243 24.7493 3.55671 51.2591 3.55671C77.769 3.55671 99.3398 25.1243 99.3398 51.6374C99.3398 71.8477 86.8058 89.1843 69.1023 96.2826Z" fill="#FBFAF3"/>
<path d="M51.6812 68.1784C50.4149 67.0841 48.7945 66.4834 47.1222 66.4834C43.8329 66.4834 41.0273 68.7207 40.2967 71.9256L40.2285 72.2244L40.3032 72.5231C40.3422 72.692 40.3941 72.8641 40.4591 73.0459L40.5792 73.4063L40.8779 73.6401C42.1216 74.6338 43.625 75.1598 45.2226 75.1598C48.6192 75.1598 51.5156 72.7309 52.1099 69.3896L52.2398 68.659L51.6812 68.1784ZM45.2226 72.5621C44.4238 72.5621 43.664 72.351 42.9919 71.9549C43.6218 70.2371 45.2486 69.0811 47.1222 69.0811C47.9113 69.0811 48.6776 69.2922 49.3498 69.6883C48.7231 71.3899 47.093 72.5621 45.2226 72.5621Z" fill="#FBFAF3"/>
</g>
<defs>
<clipPath id="clip0_791_2530">
<rect width="101.354" height="114.3" fill="white" transform="translate(0.583984 0.958984)"/>
</clipPath>
</defs>
</svg>
